<svg width="21" height="21" viewBox="0 0 21 21" fill="none" xmlns="http://www.w3.org/2000/svg">
<g clip-path="url(#clip0)">
<path d="M19.7622 16.3312L15.7141 13.6316C15.2004 13.2917 14.5118 13.4036 14.132 13.8885L12.9528 15.4046C12.8013 15.6044 12.5258 15.6624 12.3066 15.5406L12.0823 15.417C11.3387 15.0117 10.4136 14.5071 8.5495 12.6424C6.68544 10.7777 6.17985 9.85178 5.77456 9.10959L5.65157 8.88529C5.52811 8.6661 5.58498 8.38946 5.78487 8.23671L7.29996 7.0579C7.78473 6.67807 7.8967 5.98966 7.55726 5.47579L4.85766 1.42772C4.50979 0.904441 3.81184 0.747355 3.27329 1.0711L1.58053 2.08794C1.04866 2.40062 0.658443 2.90703 0.49171 3.50105C-0.117848 5.72204 0.340716 9.55515 5.98722 15.2023C10.4789 19.6936 13.8227 20.9015 16.1211 20.9015C16.65 20.9037 17.1769 20.8349 17.6875 20.6968C18.2816 20.5303 18.7881 20.1401 19.1006 19.608L20.1185 17.9163C20.4427 17.3776 20.2857 16.6792 19.7622 16.3312ZM19.5442 17.5743L18.5287 19.2671C18.3043 19.6511 17.94 19.9334 17.5122 20.055C15.4618 20.6179 11.8797 20.1516 6.45879 14.7307C1.03792 9.30987 0.571698 5.72806 1.13462 3.67739C1.25632 3.24901 1.53902 2.88426 1.92349 2.65953L3.61625 1.64402C3.84992 1.50341 4.15285 1.57157 4.3038 1.79864L5.77026 4.00031L7.0011 5.84636C7.1485 6.06926 7.10007 6.368 6.88978 6.53294L5.37434 7.71175C4.91316 8.06439 4.78146 8.70246 5.06541 9.20887L5.18574 9.42751C5.61169 10.2087 6.14126 11.1806 8.07465 13.1136C10.008 15.0467 10.9796 15.5763 11.7604 16.0022L11.9794 16.1228C12.4858 16.4067 13.1239 16.2751 13.4765 15.8139L14.6553 14.2985C14.8203 14.0883 15.1189 14.0399 15.3419 14.1872L19.3896 16.8868C19.6168 17.0376 19.685 17.3407 19.5442 17.5743Z" fill="#EB0A1E"/>
<path d="M11.6199 4.23698C14.7476 4.24045 17.2822 6.77512 17.2857 9.90282C17.2857 10.0869 17.4349 10.2361 17.619 10.2361C17.8031 10.2361 17.9523 10.0869 17.9523 9.90282C17.9484 6.40712 15.1156 3.57426 11.6199 3.57043C11.4358 3.57043 11.2866 3.71963 11.2866 3.90371C11.2866 4.08778 11.4358 4.23698 11.6199 4.23698Z" fill="#EB0A1E"/>
<path d="M11.6199 6.23673C13.6437 6.23911 15.2836 7.87911 15.286 9.90287C15.286 10.0869 15.4353 10.2361 15.6193 10.2361C15.8034 10.2361 15.9526 10.0869 15.9526 9.90287C15.9498 7.51111 14.0116 5.57292 11.6199 5.57019C11.4358 5.57019 11.2866 5.71939 11.2866 5.90346C11.2866 6.08754 11.4358 6.23673 11.6199 6.23673Z" fill="#EB0A1E"/>
<path d="M11.6199 8.23649C12.5398 8.23758 13.2852 8.98302 13.2863 9.90292C13.2863 10.087 13.4356 10.2362 13.6196 10.2362C13.8036 10.2362 13.9529 10.087 13.9529 9.90292C13.9514 8.61506 12.9077 7.57139 11.6199 7.56995C11.4358 7.56995 11.2866 7.71914 11.2866 7.90322C11.2866 8.08729 11.4358 8.23649 11.6199 8.23649Z" fill="#EB0A1E"/>
</g>
<defs>
<clipPath id="clip0">
<rect width="20" height="20" fill="white" transform="translate(0.287109 0.901978)"/>
</clipPath>
</defs>
</svg>
