<svg width="21" height="21" viewBox="0 0 21 21" fill="none" xmlns="http://www.w3.org/2000/svg">
<g clip-path="url(#clip0)">
<path d="M17.4785 15.2459L17.4055 15.3659L17.2698 15.3312C16.802 15.2064 15.819 14.9703 14.4752 14.7721L14.2801 14.7434L14.3183 14.5496C14.3656 14.3005 14.4092 14.0505 14.448 13.7992L14.1901 12.9419C14.1263 13.4713 14.043 13.9984 13.9401 14.5206L13.9063 14.6919L13.7324 14.6708C12.1307 14.4492 10.4671 14.4448 10.4671 14.4448V13.5063L10.2793 12.8103L10.1016 13.507L10.0902 14.4436C10.0902 14.4436 8.48537 14.4344 6.76056 14.6415L6.586 14.6627L6.55284 14.4903C6.45149 13.9701 6.36946 13.4436 6.30596 12.9154L6.0402 13.7396C6.08095 14.0013 6.12576 14.2624 6.17594 14.5225L6.2129 14.7144L6.01912 14.7441C5.09298 14.8855 4.1747 15.0818 3.29117 15.3293L3.15322 15.3671L3.07939 15.2444C2.92945 14.9966 2.79652 14.7393 2.67278 14.4786H2.2561C3.62863 17.5456 6.70763 19.6887 10.2794 19.6887C13.8506 19.6887 16.9299 17.5456 18.303 14.4786H17.8854C17.7622 14.7409 17.6291 14.9978 17.4785 15.2459ZM7.46204 18.843L7.46803 18.8401L7.06521 18.6726C5.66428 18.0905 4.44266 17.1381 3.53355 15.9171L3.3672 15.6945L3.63587 15.6229C4.4282 15.412 5.2641 15.241 6.11949 15.1135L6.29308 15.0879L6.33224 15.258C6.57533 16.3287 6.90547 17.3954 7.31297 18.4292L7.47394 18.8377L7.52007 18.8582L7.46204 18.843ZM10.0906 19.312L9.89389 19.3038C9.24648 19.2738 8.60056 19.1678 7.9737 18.9891L7.93489 18.9784C7.48223 17.8779 6.98001 16.3928 6.71425 15.2437L6.66688 15.038L6.87557 15.0143C7.85286 14.8997 8.87152 14.8388 9.90156 14.836L10.0907 14.8347V19.312H10.0906ZM10.6651 19.3032L10.4672 19.3114V14.8362L10.6591 14.841C11.6364 14.8628 12.6301 14.9341 13.6141 15.0519L13.8244 15.0765L13.7764 15.2811C13.5085 16.4279 12.9664 17.9172 12.5134 19.0078C11.9104 19.1747 11.2876 19.2751 10.6651 19.3032ZM17.0189 15.9275C16.0943 17.1643 14.8506 18.1236 13.4218 18.7006L13.0541 18.8499L13.0636 18.8543L13.049 18.8591L13.1756 18.4579C13.5837 17.4254 13.9152 16.3612 14.1586 15.2949L14.1978 15.126L14.3707 15.1506C15.4939 15.3125 16.3723 15.5019 16.9109 15.632L17.1884 15.699L17.0189 15.9275Z" fill="#EB0A1E"/>
<path d="M3.18441 6.39558L3.25797 6.28038L3.38957 6.31416C3.89903 6.44488 4.73776 6.63611 5.83854 6.80784L6.02191 6.83659L5.99668 7.01997C5.92506 7.53296 5.87329 8.05159 5.83598 8.57146H6.06892H6.21093C6.24753 8.06959 6.29746 7.56921 6.3659 7.0743L6.39245 6.88898L6.57741 6.91333C7.67846 7.05789 8.79872 7.14222 9.9055 7.16365L10.0905 7.16744V8.57155H10.4674V7.17053L10.6543 7.16868C11.7789 7.16233 12.8797 7.09035 13.9286 6.95531L14.1139 6.93229L14.1405 7.11699C14.2065 7.59743 14.2538 8.08387 14.2888 8.57128H14.5092H14.6651C14.6282 8.06429 14.5783 7.55862 14.5092 7.0586L14.484 6.87584L14.6667 6.84647C15.5023 6.71355 16.3416 6.53176 17.1605 6.30702L17.2946 6.27006L17.3694 6.38746C18.0108 7.39289 18.4273 8.5248 18.5974 9.69817L18.8294 8.88158C17.9143 5.00831 14.429 2.1156 10.2796 2.1156C6.15316 2.1156 2.68403 4.97586 1.74493 8.8172L1.96588 9.66792C2.1392 8.50707 2.5512 7.39024 3.18441 6.39558ZM14.0143 3.36985C15.1277 3.92447 16.1254 4.73735 16.8963 5.72126L17.075 5.94697L16.7966 6.01992C16.1034 6.19985 15.3672 6.352 14.609 6.47099L14.4263 6.49974L14.3941 6.31663C14.1898 5.11901 13.931 4.17515 13.7498 3.59468L13.6185 3.17325L14.0143 3.36985ZM10.4674 2.49293L10.6648 2.50211C11.4861 2.53906 12.2942 2.6966 13.0664 2.96932L13.1507 2.99834L13.181 3.08231C13.3379 3.51001 13.7347 4.68743 14.0229 6.358L14.0557 6.55249L13.8606 6.57648C12.8243 6.70623 11.7463 6.77441 10.6575 6.77944L10.4678 6.77979L10.4674 2.49293ZM7.34108 3.02136L7.42443 2.99102C8.21641 2.70436 9.04755 2.53995 9.89359 2.50175L10.0909 2.49258V6.77776L9.89836 6.773C8.82501 6.75033 7.73155 6.6683 6.64886 6.52938L6.45411 6.50442L6.48789 6.30993C6.76061 4.74362 7.12145 3.62926 7.31144 3.10462L7.34108 3.02136ZM3.66609 5.71623C4.42023 4.75694 5.39117 3.95799 6.47422 3.40654L6.87104 3.20385L6.73944 3.6297C6.56551 4.19129 6.31519 5.10516 6.11382 6.26927L6.08198 6.45141L5.89984 6.42327C4.961 6.27897 4.22397 6.12179 3.77096 6.01542L3.48245 5.94847L3.66609 5.71623Z" fill="#EB0A1E"/>
<path d="M3.05105 11.5653C3.20479 11.0927 3.34176 10.6384 3.4507 10.111H3.46966C3.57824 10.629 3.70543 11.0659 3.86014 11.5567L4.53251 13.6562H5.25983L6.67841 9.25646H5.88731L5.25974 11.4652C5.11394 11.9838 4.99646 12.4472 4.9229 12.8926H4.89608C4.79668 12.4472 4.66878 11.9832 4.50596 11.4567L3.82283 9.25646H3.1508L2.43168 11.5015C2.28677 11.9747 2.14123 12.4466 2.04156 12.892H2.01342C1.93263 12.4374 1.81391 11.9826 1.68672 11.4921L1.10528 9.25549H0.287109L1.61413 13.6552H2.34145L3.05105 11.5653Z" fill="#EB0A1E"/>
<path d="M11.7272 12.8923H11.6998C11.6004 12.4474 11.4722 11.9831 11.309 11.4566L10.6266 9.25633H9.95541L9.23664 11.5016C9.09146 11.9742 8.94496 12.4471 8.84555 12.8918H8.81838C8.73697 12.4376 8.61825 11.9827 8.49071 11.4918L7.9083 9.25598H7.09039L8.41812 13.6557H9.14544L9.85477 11.5648C10.0095 11.0922 10.1461 10.638 10.2554 10.1105H10.273C10.3826 10.6285 10.5098 11.0654 10.6641 11.5562L11.3355 13.6557H12.0637L13.4827 9.25598H12.6909L12.0637 11.4647C11.9182 11.9831 11.8002 12.4474 11.7272 12.8923Z" fill="#EB0A1E"/>
<path d="M19.4941 9.25648L18.8668 11.4652C18.7207 11.9838 18.6033 12.4472 18.5313 12.8927H18.5039C18.4045 12.4472 18.2769 11.9832 18.1128 11.4567L17.431 9.25648H16.7592L16.0411 11.5015C15.8955 11.9747 15.7494 12.4466 15.6502 12.892H15.6225C15.5411 12.4374 15.4217 11.9826 15.2951 11.4921L14.7134 9.25586H13.8954L15.2216 13.6556H15.9498L16.6588 11.5649C16.8128 11.0921 16.9498 10.6378 17.0594 10.1104H17.078C17.1875 10.6287 17.3141 11.0653 17.4685 11.5567L18.1405 13.6556H18.8678L20.287 9.25586H19.4941V9.25648Z" fill="#EB0A1E"/>
</g>
<defs>
<clipPath id="clip0">
<rect width="20" height="20" fill="white" transform="translate(0.287109 0.901978)"/>
</clipPath>
</defs>
</svg>
