<svg width="15" height="20" viewBox="0 0 15 20" fill="none" xmlns="http://www.w3.org/2000/svg">
<g clip-path="url(#clip0)">
<path d="M7.2929 0.166138C3.35671 0.166138 0.166138 3.00263 0.166138 6.50139C0.166138 10.0001 3.28528 14.0663 7.2929 20.1661C11.3012 14.0663 14.4197 10.0001 14.4197 6.50139C14.4197 3.00263 11.2291 0.166138 7.2929 0.166138ZM7.2929 8.90351C6.78733 8.90351 6.29311 8.75359 5.87275 8.47271C5.45238 8.19183 5.12475 7.79261 4.93128 7.32552C4.7378 6.85843 4.68717 6.34447 4.78581 5.84861C4.88444 5.35275 5.1279 4.89728 5.48539 4.53979C5.84288 4.1823 6.29837 3.93884 6.79422 3.84021C7.29008 3.74158 7.80403 3.7922 8.27112 3.98567C8.7382 4.17914 9.13744 4.50678 9.41832 4.92715C9.6992 5.34751 9.84911 5.84173 9.84911 6.3473C9.8492 6.68301 9.78314 7.01545 9.65471 7.32563C9.52628 7.6358 9.338 7.91763 9.10062 8.15501C8.86324 8.3924 8.58139 8.58068 8.27122 8.70911C7.96104 8.83754 7.62861 8.9036 7.2929 8.90351V8.90351Z" stroke="#EB0A1E" stroke-miterlimit="10"/>
</g>
<defs>
<clipPath id="clip0">
<rect width="14.2519" height="20" fill="white"/>
</clipPath>
</defs>
</svg>
