<svg width="20" height="20" viewBox="0 0 20 20" fill="none" xmlns="http://www.w3.org/2000/svg">
<path d="M7.8039 11.2891C7.88644 11.2891 7.96847 11.2544 8.02644 11.1869L9.50019 9.46843C9.54573 9.41531 9.57077 9.34765 9.57077 9.27769V6.06335C9.57077 5.90152 9.4396 5.77039 9.2778 5.77039C9.11601 5.77039 8.98484 5.90152 8.98484 6.06335V9.16925L7.58168 10.8054C7.47637 10.9282 7.49055 11.1132 7.61336 11.2185C7.66859 11.2659 7.7364 11.2891 7.8039 11.2891Z" fill="#EB0A1E"/>
<path d="M19.293 14.3165H19.1101C19.068 14.195 19.0187 14.0751 18.9629 13.9575L19.0914 13.8286C19.3668 13.5532 19.3668 13.1052 19.0914 12.8298L18.3141 12.0525C18.2691 12.0075 18.2195 11.97 18.1672 11.9396C18.1992 11.8325 18.2293 11.7247 18.2574 11.6161C18.607 10.2685 18.6476 8.83218 18.3758 7.4623C18.3441 7.3037 18.1898 7.20058 18.0312 7.23222C17.8723 7.26386 17.7695 7.41816 17.8008 7.57675C18.0922 9.04234 18.007 10.5173 17.575 11.8876C17.4801 11.9216 17.3914 11.9767 17.3152 12.0525L17.1867 12.181C17.0687 12.1255 16.9492 12.0763 16.8277 12.0337V11.8513C16.8277 11.5146 16.5918 11.2321 16.2773 11.1614C16.4793 10.4087 16.559 9.61968 16.5082 8.8189C16.3855 6.88769 15.518 5.11976 14.0653 3.84085C12.6914 2.6305 10.9837 2.03656 9.28249 2.0364C9.26757 2.03406 9.25241 2.03249 9.23687 2.03249C9.2205 2.03249 9.20452 2.03417 9.1889 2.03675C7.21023 2.06195 5.24886 2.89066 3.84085 4.48925C3.73382 4.61034 3.74554 4.7955 3.86702 4.90253C3.98851 5.00956 4.17327 4.99784 4.28031 4.87636C5.51476 3.47503 7.21179 2.71773 8.94394 2.63058V3.32863C8.94394 3.49046 9.07511 3.62159 9.23691 3.62159C9.3987 3.62159 9.52988 3.49046 9.52988 3.32863V2.62659C11.0107 2.68144 12.4821 3.22687 13.6782 4.28034C15.0134 5.45609 15.811 7.08109 15.9235 8.85605C15.927 8.91202 15.9297 8.96788 15.9319 9.0237H15.2271C15.0653 9.0237 14.9341 9.15484 14.9341 9.31667C14.9341 9.47851 15.0653 9.60964 15.2271 9.60964H15.9294C15.9044 10.1335 15.8184 10.6477 15.6739 11.1439H15.0223C14.6328 11.1439 14.3164 11.4611 14.3164 11.8513V12.0548C14.2012 12.0974 14.0875 12.1459 13.9762 12.2001L13.8285 12.0525C13.5532 11.7771 13.1051 11.7771 12.8297 12.0525L12.0524 12.8298C11.777 13.1052 11.777 13.5533 12.0524 13.8287L12.2207 13.9974C12.1735 14.1017 12.1305 14.2084 12.0926 14.3166H11.8512C11.461 14.3166 11.1438 14.633 11.1438 15.0224V15.6677C10.7678 15.7769 10.3835 15.852 9.99593 15.894V15.2803C9.99593 15.1185 9.86476 14.9874 9.70296 14.9874C9.54116 14.9874 9.40999 15.1185 9.40999 15.2803V15.9316C7.80116 15.9645 6.1762 15.4203 4.87628 14.2756C3.48468 13.0499 2.71113 11.3328 2.62999 9.57097H3.32855C3.49034 9.57097 3.62152 9.43984 3.62152 9.278C3.62152 9.11616 3.49034 8.98503 3.32855 8.98503H2.62855C2.67113 7.95613 2.95156 6.92882 3.48468 5.99136C3.56476 5.85074 3.51554 5.67183 3.37491 5.59214C3.23429 5.51206 3.05538 5.56128 2.9757 5.70191C2.35999 6.7839 2.0382 8.01351 2.03374 9.25527C2.03316 9.2628 2.03261 9.27034 2.03261 9.278C2.03261 9.28597 2.0332 9.29382 2.03382 9.30159C2.03488 9.68074 2.06515 10.0609 2.12616 10.4381C2.39296 12.0889 3.23202 13.608 4.48941 14.7154C5.86359 15.9255 7.57179 16.5196 9.27331 16.5196C9.40558 16.5196 9.53777 16.5152 9.66984 16.508C9.68081 16.5092 9.69191 16.51 9.7032 16.51C9.72554 16.51 9.74718 16.5073 9.76808 16.5025C10.2375 16.4706 10.704 16.3936 11.16 16.2716C11.2288 16.5892 11.5128 16.8278 11.8514 16.8278H12.1132C12.151 16.9298 12.1932 17.0302 12.2397 17.129L12.0526 17.3153C11.978 17.3903 11.9233 17.4775 11.8893 17.5708C11.228 17.7778 10.537 17.9067 9.82804 17.9517C9.63976 17.9638 9.45226 17.9696 9.26554 17.9696C7.15152 17.9696 5.13437 17.2099 3.53363 15.8001C-0.0625461 12.6329 -0.412156 7.12991 2.7546 3.53347C5.92175 -0.0625461 11.4248 -0.412156 15.0212 2.75456C16.0997 3.70378 16.9313 4.91312 17.427 6.25175C17.4833 6.40331 17.6516 6.48105 17.8036 6.4248C17.9551 6.36855 18.0329 6.1998 17.9766 6.04824C17.4473 4.61898 16.5595 3.32796 15.4087 2.31472C13.5489 0.677688 11.163 -0.137937 8.68964 0.0190943C6.21663 0.176126 3.95261 1.28663 2.31476 3.14601C0.677688 5.00574 -0.137937 7.39202 0.0190943 9.86503C0.176126 12.338 1.28663 14.6021 3.14601 16.2399C4.85495 17.745 7.00804 18.5555 9.26464 18.5555C9.46386 18.5555 9.66425 18.5493 9.86503 18.5364C10.5775 18.491 11.2728 18.3668 11.9404 18.168C11.9705 18.2203 12.008 18.2696 12.0525 18.3141L12.8298 19.0914C13.1052 19.3668 13.5533 19.3668 13.8287 19.0918L14.0158 18.9051C14.1146 18.9516 14.2146 18.9934 14.3166 19.0309V19.293C14.3166 19.6828 14.633 20 15.0224 20H16.122C16.511 20 16.8278 19.6828 16.8278 19.293V19.0524C16.9353 19.0145 17.0419 18.9715 17.147 18.9231L17.3153 19.0914C17.5907 19.3668 18.0388 19.3668 18.3142 19.0914L19.0915 18.3141C19.3669 18.0387 19.3669 17.5907 19.0915 17.3153L18.9443 17.168C18.9985 17.0567 19.047 16.9434 19.0896 16.8278H19.2931C19.6829 16.8278 20.0001 16.511 20.0001 16.1219V15.0223C20 14.6329 19.6828 14.3165 19.293 14.3165ZM19.4141 16.1219C19.4141 16.1868 19.3586 16.2419 19.293 16.2419H18.8789C18.7496 16.2419 18.6355 16.3266 18.5984 16.4505C18.5328 16.6676 18.4422 16.8786 18.3293 17.0778C18.2644 17.1926 18.284 17.3364 18.3769 17.4298L18.6773 17.7298C18.7234 17.7759 18.7234 17.854 18.6773 17.9001L17.9 18.6774C17.8539 18.7235 17.7758 18.7235 17.7297 18.6774L17.4129 18.3606C17.3219 18.2696 17.1824 18.2489 17.0687 18.3087C16.8703 18.4137 16.6637 18.4969 16.4551 18.5559C16.3289 18.5919 16.2418 18.7067 16.2418 18.838V19.293C16.2418 19.3587 16.1867 19.4141 16.1219 19.4141H15.0223C14.9571 19.4141 14.9024 19.3587 14.9024 19.293V18.82C14.9024 18.6911 14.8176 18.577 14.6938 18.5395C14.4899 18.4782 14.2899 18.3946 14.0996 18.2907C14.0555 18.2665 14.0071 18.2548 13.9594 18.2548C13.8836 18.2548 13.8086 18.2841 13.7524 18.3403L13.4145 18.6774C13.3684 18.7235 13.2903 18.7235 13.2442 18.6774L12.5356 17.9688L12.4668 17.9001C12.4207 17.8536 12.4207 17.7759 12.4664 17.7298L12.8043 17.3934C12.8606 17.3372 12.8899 17.263 12.8903 17.1876C12.8907 17.1391 12.8789 17.0899 12.8543 17.045C12.75 16.8551 12.666 16.6548 12.6043 16.4505C12.5672 16.3266 12.4532 16.2419 12.3239 16.2419H11.8512C11.7852 16.2419 11.7297 16.1868 11.7297 16.1219V16.0934V15.4676V15.0223C11.7297 14.9571 11.7852 14.9024 11.8512 14.9024H12.3071C12.4383 14.9024 12.5535 14.8153 12.5891 14.6891C12.6493 14.4774 12.7321 14.2708 12.8352 14.0751C12.8953 13.9614 12.8743 13.8219 12.7836 13.7309L12.4668 13.4145C12.4207 13.3684 12.4207 13.2903 12.4668 13.2442L13.2442 12.4669C13.2903 12.4208 13.3684 12.4208 13.4145 12.4669L13.7145 12.7669C13.8075 12.8598 13.9512 12.8794 14.0657 12.8149C14.266 12.7016 14.4774 12.611 14.6942 12.5458C14.8176 12.5083 14.9024 12.3942 14.9024 12.2653V11.8512C14.9024 11.7852 14.9571 11.7298 15.0223 11.7298H15.4727H16.0993H16.1219C16.1868 11.7298 16.2418 11.7852 16.2418 11.8512V12.2485C16.2418 12.3798 16.3293 12.4954 16.4559 12.5305C16.677 12.5926 16.8946 12.6817 17.1028 12.7958C17.1383 12.8153 17.177 12.8266 17.2157 12.8301C17.3004 12.8387 17.3871 12.8091 17.4504 12.7458L17.7297 12.4669C17.7758 12.4208 17.8535 12.4208 17.9 12.4669L17.968 12.5348L18.6774 13.2442C18.7235 13.2903 18.7235 13.3684 18.6774 13.4145L18.3981 13.6934C18.3063 13.7856 18.286 13.927 18.3485 14.0415C18.4621 14.2493 18.5512 14.4669 18.6133 14.6884C18.6489 14.8149 18.7641 14.9024 18.8953 14.9024H19.293C19.3586 14.9024 19.4141 14.9571 19.4141 15.0223V16.1219H19.4141Z" fill="#EB0A1E"/>
<path d="M15.5724 14.2354C14.8351 14.2354 14.2353 14.8352 14.2353 15.5725C14.2353 16.3091 14.8351 16.9085 15.5724 16.9085C16.3091 16.9085 16.9084 16.3092 16.9084 15.5725C16.9084 14.8352 16.3091 14.2354 15.5724 14.2354ZM15.5724 16.3225C15.1582 16.3225 14.8212 15.9861 14.8212 15.5725C14.8212 15.1583 15.1582 14.8213 15.5724 14.8213C15.986 14.8213 16.3225 15.1583 16.3225 15.5725C16.3225 15.9861 15.986 16.3225 15.5724 16.3225Z" fill="#EB0A1E"/>
</svg>
